HIERARCHY
ROOT hip
{
  OFFSET 0 0 0
  CHANNELS 6 Xposition Yposition Zposition Zrotation Yrotation Xrotation
  JOINT abdomen
  {
    OFFSET 0 20.6881 -0.73152
    CHANNELS 3 Zrotation Xrotation Yrotation
    JOINT chest
    {
      OFFSET 0 11.7043 -0.48768
      CHANNELS 3 Zrotation Xrotation Yrotation
      JOINT neck
      {
        OFFSET 0 22.1894 -2.19456
        CHANNELS 3 Zrotation Xrotation Yrotation
        JOINT head
        {
          OFFSET -0.24384 7.07133 1.2192
          CHANNELS 3 Zrotation Xrotation Yrotation
          JOINT leftEye
          {
            OFFSET 4.14528 8.04674 8.04672
            CHANNELS 3 Zrotation Xrotation Yrotation
            End Site
            {
              OFFSET 1 0 0
            }
          }
          JOINT rightEye
          {
            OFFSET -3.6576 8.04674 8.04672
            CHANNELS 3 Zrotation Xrotation Yrotation
            End Site
            {
              OFFSET 1 0 0
            }
          }
        }
      }
      JOINT rCollar
      {
        OFFSET -2.68224 19.2634 -4.8768
        CHANNELS 3 Zrotation Xrotation Yrotation
        JOINT rShldr
        {
          OFFSET -8.77824 -1.95073 1.46304
          CHANNELS 3 Zrotation Xrotation Yrotation
          JOINT rForeArm
          {
            OFFSET -28.1742 -1.7115 0.48768
            CHANNELS 3 Zrotation Xrotation Yrotation
            JOINT rHand
            {
              OFFSET -22.5879 0.773209 7.07136
              CHANNELS 3 Zrotation Xrotation Yrotation
              JOINT rThumb1
              {
                OFFSET -1.2192 -0.487915 3.41376
                CHANNELS 3 Zrotation Xrotation Yrotation
                JOINT rThumb2
                {
                  OFFSET -3.37035 -0.52449 3.41376
                  CHANNELS 3 Zrotation Xrotation Yrotation
                  End Site
                  {
                    OFFSET -1.78271 -1.18214 1.43049
                  }
                }
              }
              JOINT rIndex1
              {
                OFFSET -7.75947 0.938293 5.60832
                CHANNELS 3 Zrotation Xrotation Yrotation
                JOINT rIndex2
                {
                  OFFSET -2.54057 -0.884171 1.56538
                  CHANNELS 3 Zrotation Xrotation Yrotation
                  End Site
                  {
                    OFFSET -1.62519 -0.234802 1.16502
                  }
                }
              }
              JOINT rMid1
              {
                OFFSET -8.24714 1.18213 3.41376
                CHANNELS 3 Zrotation Xrotation Yrotation
                JOINT rMid2
                {
                  OFFSET -3.10165 -0.590103 1.0647
                  CHANNELS 3 Zrotation Xrotation Yrotation
                  End Site
                  {
                    OFFSET -2.48547 -0.328903 0.83742
                  }
                }
              }
              JOINT rRing1
              {
                OFFSET -8.82822 0.546677 1.51678
                CHANNELS 3 Zrotation Xrotation Yrotation
                JOINT rRing2
                {
                  OFFSET -2.60934 -0.819778 -0.0198488
                  CHANNELS 3 Zrotation Xrotation Yrotation
                  End Site
                  {
                    OFFSET -2.33842 -0.294052 0.168128
                  }
                }
              }
              JOINT rPinky1
              {
                OFFSET -8.27202 -0.0477905 -0.4584
                CHANNELS 3 Zrotation Xrotation Yrotation
                JOINT rPinky2
                {
                  OFFSET -1.82734 -0.647385 -0.700984
                  CHANNELS 3 Zrotation Xrotation Yrotation
                  End Site
                  {
                    OFFSET -1.69225 -0.51767 -0.607171
                  }
                }
              }
            }
          }
        }
      }
      JOINT lCollar
      {
        OFFSET 2.68224 19.2634 -4.8768
        CHANNELS 3 Zrotation Xrotation Yrotation
        JOINT lShldr
        {
          OFFSET 8.77824 -1.95073 1.46304
          CHANNELS 3 Zrotation Xrotation Yrotation
          JOINT lForeArm
          {
            OFFSET 28.1742 -1.7115 0.48768
            CHANNELS 3 Zrotation Xrotation Yrotation
            JOINT lHand
            {
              OFFSET 22.5879 0.773209 7.07136
              CHANNELS 3 Zrotation Xrotation Yrotation
              JOINT lThumb1
              {
                OFFSET 1.2192 -0.487915 3.41376
                CHANNELS 3 Zrotation Xrotation Yrotation
                JOINT lThumb2
                {
                  OFFSET 3.37035 -0.52449 3.41376
                  CHANNELS 3 Zrotation Xrotation Yrotation
                  End Site
                  {
                    OFFSET 1.78271 -1.18214 1.43049
                  }
                }
              }
              JOINT lIndex1
              {
                OFFSET 7.75947 0.938293 5.60832
                CHANNELS 3 Zrotation Xrotation Yrotation
                JOINT lIndex2
                {
                  OFFSET 2.54057 -0.884171 1.56538
                  CHANNELS 3 Zrotation Xrotation Yrotation
                  End Site
                  {
                    OFFSET 1.62519 -0.234802 1.16502
                  }
                }
              }
              JOINT lMid1
              {
                OFFSET 8.24714 1.18213 3.41376
                CHANNELS 3 Zrotation Xrotation Yrotation
                JOINT lMid2
                {
                  OFFSET 3.10165 -0.590103 1.0647
                  CHANNELS 3 Zrotation Xrotation Yrotation
                  End Site
                  {
                    OFFSET 2.48547 -0.328903 0.83742
                  }
                }
              }
              JOINT lRing1
              {
                OFFSET 8.82822 0.546677 1.51678
                CHANNELS 3 Zrotation Xrotation Yrotation
                JOINT lRing2
                {
                  OFFSET 2.60934 -0.819778 -0.0198488
                  CHANNELS 3 Zrotation Xrotation Yrotation
                  End Site
                  {
                    OFFSET 2.33842 -0.294052 0.168128
                  }
                }
              }
              JOINT lPinky1
              {
                OFFSET 8.27202 -0.0477905 -0.4584
                CHANNELS 3 Zrotation Xrotation Yrotation
                JOINT lPinky2
                {
                  OFFSET 1.82734 -0.647385 -0.700984
                  CHANNELS 3 Zrotation Xrotation Yrotation
                  End Site
                  {
                    OFFSET 1.69225 -0.51767 -0.607171
                  }
                }
              }
            }
          }
        }
      }
    }
  }
  JOINT rButtock
  {
    OFFSET -8.77824 4.35084 1.2192
    CHANNELS 3 Zrotation Xrotation Yrotation
    JOINT rThigh
    {
      OFFSET 0 -1.70687 -2.19456
      CHANNELS 3 Zrotation Xrotation Yrotation
      JOINT rShin
      {
        OFFSET 0 -36.8199 0.73152
        CHANNELS 3 Zrotation Xrotation Yrotation
        JOINT rFoot
        {
          OFFSET 0.73152 -45.1104 -5.12064
          CHANNELS 3 Zrotation Xrotation Yrotation
          End Site
          {
            OFFSET -1.1221 -3.69964 12.103
          }
        }
      }
    }
  }
  JOINT lButtock
  {
    OFFSET 8.77824 4.35084 1.2192
    CHANNELS 3 Zrotation Xrotation Yrotation
    JOINT lThigh
    {
      OFFSET 0 -1.70687 -2.19456
      CHANNELS 3 Zrotation Xrotation Yrotation
      JOINT lShin
      {
        OFFSET 0 -36.8199 0.73152
        CHANNELS 3 Zrotation Xrotation Yrotation
        JOINT lFoot
        {
          OFFSET -0.73152 -45.1104 -5.12064
          CHANNELS 3 Zrotation Xrotation Yrotation
          End Site
          {
            OFFSET 1.1221 -3.69964 12.103
          }
        }
      }
    }
  }
}
MOTION
Frames:	4
Frame Time:	0.03333
-0.0038402704522013664 61.74168014526367 0.0563296303153038 -46.83679819107056 6.5090614557266235 -60.857890248298645 0.04361908882856369 24.411202669143677 -1.0729265213012695 15.821358561515808 -13.08981567621231 -4.768887832760811 -4.96942151337862 19.18624073266983 -1.2856156378984451 20.054015815258026 -21.901845932006836 -1.5381476283073425 4.2430246621370316 1.800310593098402 -3.1190811842679977 7.4319250881671906 9.121089801192284 4.844887554645538 -5.295327007770538 -5.803255587816238 -2.9974423348903656 37.15852975845337 21.975315660238266 14.991173297166824 -30.79633802175522 -19.909149706363678 58.907339572906494 -12.25643590092659 -7.626744657754898 -3.309292383491993 0.9348497539758682 2.8782228380441666 -1.9695273041725159 -7.24629744887352 -8.17334197461605 5.740211606025696 -1.01553563028574 -0.8209384325891733 3.5656334459781647 0.820254385471344 0.2806415408849716 1.438576653599739 0.6509090960025787 4.043874330818653 -6.177359372377396 -1.3436492532491684 -2.5068052858114243 1.1490834038704634 5.503579750657082 4.4696153327822685 -1.3452163338661194 7.449170351028442 -3.341860771179199 -3.7411142885684967 -6.2369634211063385 -2.303925007581711 8.144150823354721 9.16821151971817 -5.932896137237549 0.17597638070583344 4.086831584572792 -2.0800095051527023 -0.4668782511726022 -37.5669202208519 10.155073329806328 -38.6431485414505 27.417996525764465 -23.707688748836517 -45.800628662109375 -0.5466197803616524 -9.923189654946327 4.612252190709114 0.9937245771288872 -3.672907054424286 1.5902260690927505 3.163522034883499 6.5782396495342255 2.365967519581318 -0.1374679058790207 3.1553956121206284 -1.2415137514472008 -7.26124607026577 10.210016369819641 -4.971338286995888 4.37248382717371 -0.7678403332829475 1.9179470837116241 -1.5725721046328545 2.9207056760787964 -1.2209566310048103 -2.9178129136562347 0.7783384993672371 -5.186088010668755 -11.486181914806366 -1.006297767162323 -1.5475251339375973 -1.7220110446214676 -4.758793339133263 -4.254372417926788 -7.2657836973667145 -6.044743582606316 4.117740020155907 -3.1460347026586533 2.7370427548885345 -3.4183191508054733 -56.595677733421326 -33.91274303197861 -42.643293142318726 -12.725381255149841 42.48839557170868 19.723618626594543 -3.668174296617508 -5.840383395552635 -7.224974557757378 -1.8973929807543755 -4.757472351193428 -3.6006278917193413 55.39377450942993 -20.74785366654396 29.204970002174377 11.411458253860474 45.656304359436035 -22.000414431095123 1.718889456242323 -2.701004259288311 20.446636229753494
0.025393404997885227 62.108760833740234 0.11729709804058075 11.212321668863297 -3.7501362338662148 -20.419673323631287 -0.39618272334337234 9.543471336364746 -1.7105036973953247 5.263679623603821 -13.442164063453674 -6.798487231135368 -2.8434302285313606 14.733966886997223 6.182888075709343 16.068006455898285 -20.46099543571472 8.255917131900787 -6.348224803805351 2.9893313348293304 -2.8356360644102097 1.309911422431469 14.048973619937897 -4.001928269863129 -3.555895686149597 -7.651921212673187 -7.555706351995468 42.27132976055145 37.375397086143494 14.87936407327652 -26.336787343025208 -38.29288691282272 71.5709924697876 -5.263866037130356 -24.230411052703857 -8.655631989240646 -1.5011485666036606 1.5073981136083603 -1.5749260783195496 -6.585247591137886 -6.411287561058998 1.3748148456215858 4.365329705178738 6.61215215921402 2.9450346529483795 9.464643895626068 12.62938767671585 -0.7017215341329575 5.842324644327164 -5.181232206523418 -3.5522545874118805 4.635045602917671 -7.425257787108421 3.31389706581831 -8.175659403204918 6.903355568647385 0.26531070470809937 4.423346221446991 2.450573444366455 2.7413128316402435 -8.867215365171432 6.809057146310806 2.3030345141887665 0.22430241107940674 -7.381224632263184 1.279238685965538 -0.8547226991504431 7.584558203816414 3.469708599150181 -55.677847266197205 30.808008313179016 -42.680291533470154 26.485912799835205 -30.2992844581604 -57.85698115825653 1.470361165702343 -3.3443210273981094 0.23036755621433258 -2.1460505202412605 4.6406373381614685 1.4835988730192184 1.7186428606510162 4.003407172858715 1.8565409258008003 1.6603470593690872 8.050786480307579 -8.365235924720764 -4.479234740138054 4.847175143659115 3.018747791647911 -0.5562844499945641 -5.126778669655323 0.9161259233951569 2.0026784017682076 -0.232810378074646 0.006183497607707977 -1.0804194398224354 -0.7241277024149895 -3.504868671298027 -9.17928971350193 -0.7240676879882812 1.592597309499979 1.0696857422590256 -1.2709613889455795 -5.840298235416412 -3.7576041743159294 -3.550863191485405 -0.48357345163822174 4.024657979607582 -0.22178784012794495 -3.7462808936834335 -33.27579081058502 -32.811186611652374 -34.82561945915222 -43.61043870449066 63.761038184165955 40.60115307569504 0.8358313143253326 -14.771340787410736 4.417475536465645 -6.47401437163353 -8.340007737278938 -20.0044284760952 31.057038009166718 -42.84200727939606 36.948142647743225 37.653928399086 56.95014238357544 -33.8564059138298 8.372680395841599 -12.240103930234909 2.9222626984119415
0.010158425197005272 63.28774642944336 0.4531634598970413 22.17200204730034 -20.07979452610016 25.199777483940125 -1.347881443798542 10.524494647979736 -2.0011384785175323 12.853912711143494 -11.40207588672638 -0.17838483676314354 -6.641494184732437 12.8376504778862 3.019877001643181 19.49537605047226 -25.672527551651 -1.1647358536720276 -1.2101195007562637 2.2387471608817577 -3.270615264773369 6.212635785341263 6.691622659564018 3.13547283411026 -7.447876185178757 -3.1323373317718506 2.3686493933200836 44.47855442762375 28.393810987472534 19.75888967514038 -24.69397723674774 -25.31713753938675 64.88836526870728 -8.532019704580307 -19.250529259443283 -7.352716773748398 -1.3814898580312729 3.0684813112020493 -1.8364253640174866 -4.631466194987297 -10.39297990500927 3.1190580502152443 -0.8825087919831276 1.0030522104352713 4.40246120095253 3.7726959586143494 6.493892893195152 4.97902013361454 0.5210472643375397 2.3021094873547554 -4.261559396982193 0.40456362068653107 -5.630618557333946 3.7200934812426567 1.2085745483636856 3.8496897742152214 -5.211904942989349 8.934054672718048 -1.94657564163208 -0.8167098462581635 -1.9545860588550568 2.6650898158550262 2.3720209300518036 6.458430737257004 -0.7485083118081093 0.673644170165062 -0.2753628697246313 -2.4487703293561935 2.0729108713567257 -48.30367684364319 32.04890549182892 -42.02943742275238 29.584835171699524 -23.606928884983063 -56.3975590467453 6.141696721315384 -6.836256757378578 3.5158107429742813 -2.45518047362566 1.4623106829822063 -1.0828057676553726 0.5242551863193512 1.7774539813399315 1.4679532125592232 -0.5716317147016525 6.032697781920433 -4.21483900398016 -1.9472187012434006 8.320451080799103 -4.558487311005592 1.8738934770226479 -3.569088466465473 -0.9188751876354218 -1.5859616920351982 4.497093558311462 3.894677124917507 -6.616804450750351 3.656254895031452 -2.0661907643079758 -12.160124480724335 7.152217626571655 -2.1128583513200283 3.8715843111276627 -1.2333246320486069 -5.783786773681641 -5.966435819864273 -5.442083403468132 -1.1764202266931534 3.868456855416298 6.86651811003685 -6.929676756262779 -26.063749194145203 -41.450662314891815 -26.030956506729126 -18.981558680534363 61.172524094581604 12.281713038682938 -0.17136499285697937 -7.887413129210472 -3.1283026188611984 -5.170551650226116 -8.029069975018501 -8.522353023290634 19.268085658550262 -35.07069289684296 23.374818563461304 16.755934059619904 55.64018368721008 -14.323343485593796 9.687542170286179 -14.553761333227158 8.987649232149124
-0.00037305522710084915 62.28046798706055 1.0806114822626114 26.060653924942017 -11.863925457000732 32.01436936855316 -0.37460435181856155 13.1191885471344 -0.39118409156799316 10.50340712070465 -14.357698559761047 -2.419104930013418 -7.746652811765671 16.330476701259613 1.721087023615837 18.7222883105278 -25.552353858947754 2.6414260268211365 0.6203138083219528 4.556939005851746 -5.136665627360344 -0.016398020088672638 11.971946060657501 2.360840141773224 -7.938841134309769 -8.045154511928558 -1.6639123857021332 46.7657196521759 29.37071442604065 16.82391732931137 -27.990090250968933 -30.299609005451202 68.45600366592407 -6.4439696073532104 -15.059607177972794 -11.253201216459274 -4.061950072646141 2.743665799498558 -2.3417240381240845 -3.8549479097127914 -10.319103822112083 5.717284083366394 0.9385501965880394 -0.562542462721467 2.1215321123600006 2.0695146918296814 3.371538743376732 1.5312550216913223 -0.25087103247642517 1.4474477246403694 -3.240758925676346 -0.3230097144842148 -3.124695047736168 1.0754406731575727 1.1773375421762466 3.8372470065951347 -5.484889447689056 9.050548374652863 -2.818540334701538 -2.106911391019821 -2.41368368268013 5.2366845309734344 1.426885575056076 3.4211180359125137 -4.2685965076088905 1.5737559646368027 -3.117825910449028 -5.169152542948723 0.9172757528722286 -50.828129053115845 33.49637567996979 -36.55592858791351 29.921967387199402 -24.011169970035553 -55.65167427062988 5.8746238052845 -9.701848402619362 7.861375585198402 -1.0091103985905647 0.9703291766345501 -1.623300388455391 3.013817220926285 2.4641940370202065 5.4616497829556465 -1.1642872542142868 5.899306163191795 -3.235226534307003 -3.8675998896360397 11.928864419460297 -4.780091419816017 2.250947691500187 -1.2407003715634346 1.2166835367679596 -0.5361933633685112 4.0939682722091675 1.2449255213141441 -5.449474900960922 2.9666991904377937 -2.815122529864311 -9.99352253973484 6.075305342674255 -4.285654351115227 2.1402492374181747 0.7618150860071182 -7.48494565486908 -1.1792073771357536 -3.484843298792839 3.164718970656395 4.658115282654762 4.493353217840195 -5.284618958830833 -28.716196417808533 -43.145029842853546 -27.18746066093445 -18.679327368736267 65.66113114356995 12.97939583659172 -7.356686443090439 -7.764133438467979 1.4019108563661575 -4.3989552184939384 -6.635957434773445 -5.824587196111679 26.390208899974823 -37.28832185268402 28.67644876241684 12.641245722770691 61.58882975578308 -16.101501882076263 11.902054399251938 -9.38461884856224 7.8255875408649445
